<svg xmlns="http://www.w3.org/2000/svg" viewBox="0 0 900 700" role="img"><title>Baker preparing bread</title><rect width="900" height="700" fill="#f8efd4"/><rect x="90" y="75" width="720" height="520" rx="28" fill="#fffdf8"/><rect x="140" y="455" width="620" height="100" rx="16" fill="#8b5a2b"/><circle cx="430" cy="250" r="70" fill="#d89a63"/><path d="M360 210c34-76 126-76 160 0z" fill="#fffdf8" stroke="#4b2e2e" stroke-width="7"/><path d="M360 350c34-62 110-62 148 0l60 116H300z" fill="#d97706"/><path d="M330 385c-78 18-122 52-134 104" fill="none" stroke="#d89a63" stroke-width="30" stroke-linecap="round"/><path d="M540 385c86 20 132 58 144 108" fill="none" stroke="#d89a63" stroke-width="30" stroke-linecap="round"/><ellipse cx="450" cy="505" rx="185" ry="48" fill="#f4c27a"/><path d="M315 503c70-58 210-58 280 0" fill="none" stroke="#8b5a2b" stroke-width="10" stroke-linecap="round"/><rect x="135" y="150" width="130" height="82" rx="12" fill="#6f8f72"/><rect x="635" y="145" width="130" height="82" rx="12" fill="#b85c5c"/><circle cx="405" cy="255" r="7" fill="#4b2e2e"/><circle cx="462" cy="255" r="7" fill="#4b2e2e"/><path d="M415 288c20 18 42 18 62 0" fill="none" stroke="#4b2e2e" stroke-width="6" stroke-linecap="round"/></svg>