<svg xmlns="http://www.w3.org/2000/svg" viewBox="0 0 900 700" role="img"><title>Sweet Crumbs bakery counter</title><rect width="900" height="700" fill="#fff7e8"/><rect y="440" width="900" height="260" fill="#8b5a2b"/><rect x="80" y="90" width="740" height="400" rx="22" fill="#f8efd4" stroke="#4b2e2e" stroke-width="8"/><rect x="130" y="150" width="250" height="92" rx="14" fill="#d97706"/><text x="255" y="207" text-anchor="middle" fill="#fffdf8" font-family="Georgia,serif" font-size="38" font-weight="700">Fresh Daily</text><circle cx="610" cy="200" r="70" fill="#b85c5c"/><circle cx="690" cy="200" r="70" fill="#6f8f72"/><rect x="130" y="300" width="640" height="150" rx="18" fill="#fffdf8" stroke="#e5c89b" stroke-width="6"/><ellipse cx="230" cy="365" rx="80" ry="42" fill="#c07a30"/><path d="M158 362c38-58 106-58 144 0" fill="none" stroke="#7a421e" stroke-width="10" stroke-linecap="round"/><ellipse cx="430" cy="365" rx="95" ry="48" fill="#d99343"/><path d="M350 360c38-60 122-62 160 0" fill="none" stroke="#8b5a2b" stroke-width="10" stroke-linecap="round"/><path d="M600 420h135l-22-105h-91z" fill="#4b2e2e"/><path d="M610 315h115l-20-42h-75z" fill="#b85c5c"/><circle cx="635" cy="300" r="9" fill="#fffdf8"/><circle cx="675" cy="296" r="9" fill="#fffdf8"/><circle cx="704" cy="307" r="9" fill="#fffdf8"/><rect x="200" y="505" width="500" height="70" rx="12" fill="#f8efd4"/><text x="450" y="552" text-anchor="middle" fill="#4b2e2e" font-family="Verdana,sans-serif" font-size="34" font-weight="700">Sweet Crumbs Bakery</text></svg>