<svg xmlns="http://www.w3.org/2000/svg" viewBox="0 0 900 700" role="img"><title>Croissant</title><rect width="900" height="700" fill="#fff7e8"/><ellipse cx="450" cy="520" rx="280" ry="62" fill="#e5d1ab"/><path d="M250 430c115-220 310-230 430 0-150-88-280-88-430 0z" fill="#d97706"/><path d="M190 440c86-110 184-124 270-38-100 18-174 42-270 38z" fill="#c96f15"/><path d="M710 440c-86-110-184-124-270-38 100 18 174 42 270 38z" fill="#c96f15"/><path d="M335 400c40-90 82-120 115-142 34 22 76 52 116 142" fill="none" stroke="#8b5a2b" stroke-width="18" stroke-linecap="round"/></svg>